<svg width="41" height="41" viewBox="0 0 41 41" fill="none" xmlns="http://www.w3.org/2000/svg">
<path d="M20.5 5.76562C15.908 5.76562 12.1719 9.50175 12.1719 14.0938V17.5196C10.6796 18.0476 9.60938 19.4674 9.60938 21.1406V31.3906C9.60938 33.5137 11.3301 35.2344 13.4531 35.2344H27.5469C29.6699 35.2344 31.3906 33.5137 31.3906 31.3906V21.1406C31.3906 19.4674 30.3204 18.0476 28.8281 17.5196V14.0938C28.8281 9.50175 25.092 5.76562 20.5 5.76562ZM20.5 8.32812C23.6794 8.32812 26.2656 10.915 26.2656 14.0938V17.2969H14.7344V14.0938C14.7344 10.915 17.3206 8.32812 20.5 8.32812Z" fill="white" fill-opacity="0.8"/>
</svg>
