<svg width="41" height="41" viewBox="0 0 41 41" fill="none" xmlns="http://www.w3.org/2000/svg">
<path d="M12.8125 5.125C13.2842 5.125 13.6667 5.50742 13.6667 5.97917C13.6667 6.45091 13.2842 6.83333 12.8125 6.83333H9.39583C7.9806 6.83333 6.83333 7.9806 6.83333 9.39583V12.8657C6.83333 13.3374 6.45091 13.7198 5.97917 13.7198C5.50742 13.7198 5.125 13.3374 5.125 12.8657V9.39583C5.125 7.03712 7.03712 5.125 9.39583 5.125H12.8125ZM28.1875 6.83333C27.7158 6.83333 27.3333 6.45091 27.3333 5.97917C27.3333 5.50742 27.7158 5.125 28.1875 5.125H31.6042C33.9629 5.125 35.875 7.03712 35.875 9.39583V12.8125C35.875 13.2842 35.4926 13.6667 35.0208 13.6667C34.5491 13.6667 34.1667 13.2842 34.1667 12.8125V9.39583C34.1667 7.9806 33.0194 6.83333 31.6042 6.83333H28.1875ZM34.1667 28.1875C34.1667 27.7158 34.5491 27.3333 35.0208 27.3333C35.4926 27.3333 35.875 27.7158 35.875 28.1875V31.6042C35.875 33.9629 33.9629 35.875 31.6042 35.875H28.1875C27.7158 35.875 27.3333 35.4926 27.3333 35.0208C27.3333 34.5491 27.7158 34.1667 28.1875 34.1667H31.6042C33.0194 34.1667 34.1667 33.0194 34.1667 31.6042V28.1875ZM5.125 28.1875C5.125 27.7158 5.50742 27.3333 5.97917 27.3333C6.45091 27.3333 6.83333 27.7158 6.83333 28.1875V31.6042C6.83333 33.0194 7.9806 34.1667 9.39583 34.1667H12.8125C13.2842 34.1667 13.6667 34.5491 13.6667 35.0208C13.6667 35.4926 13.2842 35.875 12.8125 35.875H9.39583C7.03712 35.875 5.125 33.9629 5.125 31.6042V28.1875ZM13.6667 14.5208C13.6667 14.0491 14.0491 13.6667 14.5208 13.6667C14.9926 13.6667 15.375 14.0491 15.375 14.5208V16.2292C15.375 16.7009 14.9926 17.0833 14.5208 17.0833C14.0491 17.0833 13.6667 16.7009 13.6667 16.2292V14.5208ZM27.3333 14.5208C27.3333 14.0491 27.7158 13.6667 28.1875 13.6667C28.6592 13.6667 29.0417 14.0491 29.0417 14.5208V16.2292C29.0417 16.7009 28.6592 17.0833 28.1875 17.0833C27.7158 17.0833 27.3333 16.7009 27.3333 16.2292V14.5208ZM20.5 14.5208C20.5 14.0491 20.8824 13.6667 21.3542 13.6667C21.8259 13.6667 22.2083 14.0491 22.2083 14.5208V21.3542C22.2083 22.7694 21.0611 23.9167 19.6458 23.9167C19.1741 23.9167 18.7917 23.5342 18.7917 23.0625C18.7917 22.5908 19.1741 22.2083 19.6458 22.2083C20.1176 22.2083 20.5 21.8259 20.5 21.3542V14.5208ZM13.8375 26.9917C13.5545 26.6143 13.6309 26.0789 14.0083 25.7958C14.3857 25.5128 14.9211 25.5893 15.2042 25.9667C16.7604 28.0416 18.5104 29.0417 20.5 29.0417C22.4896 29.0417 24.2396 28.0416 25.7958 25.9667C26.0789 25.5893 26.6143 25.5128 26.9917 25.7958C27.3691 26.0789 27.4455 26.6143 27.1625 26.9917C25.3021 29.4722 23.066 30.75 20.5 30.75C17.934 30.75 15.6979 29.4722 13.8375 26.9917Z" fill="white" fill-opacity="0.2"/>
</svg>
